# xmcd
#
# Track frame offsets: 
#        150
#        25578
#        39923
#        72514
#        120697
#        139797
#        166520
#        197594
#        202860
#
# Disc length: 3035 seconds
#
# Revision: 1
# Processed by: cddbd v1.5.2PL0 Copyright (c) Steve Scherf et al.
# Submitted via: ExactAudioCopy v1.3
#
DISCID=6d0bd909
DTITLE=Pagan Altar - Lords Of Hypocrisy
DYEAR=2004
DGENRE=Heavy Metal
TTITLE0=The Lords Of Hypocrisy
TTITLE1=Satan's Henchmen
TTITLE2=Sentinels Of Hate
TTITLE3=Armageddon
TTITLE4=The Interlude
TTITLE5=The Aftermath
TTITLE6=The Masquerade
TTITLE7=The Devil Came Down To Brockley
TTITLE8=March Of The Dead
EXTD=YEAR: 2004
EXTT0=
EXTT1=
EXTT2=
EXTT3=
EXTT4=
EXTT5=
EXTT6=
EXTT7=
EXTT8=
PLAYORDER=
